<svg width="21" height="22" viewBox="0 0 21 22" fill="none" xmlns="http://www.w3.org/2000/svg">
<path fill-rule="evenodd" clip-rule="evenodd" d="M6.33171 4.35893H4.24837V3.31726H2.16569V6.44226H18.8324V3.31726H16.749V4.35893H14.6657V3.31726H6.33171V4.35893ZM18.8324 8.52559H2.16569V18.9423H18.8324V8.52559ZM14.6657 1.23391H6.33171V0.192261H4.24837V1.23391H2.16536C1.01477 1.23391 0.0820312 2.16665 0.0820312 3.31724V18.9422C0.0820312 20.0928 1.01477 21.0256 2.16536 21.0256H18.832C19.9826 21.0256 20.9154 20.0928 20.9154 18.9422V3.31724C20.9154 2.16665 19.9826 1.23391 18.832 1.23391H16.749V0.192261H14.6657V1.23391ZM7.37402 12.6922H5.29069V10.6089H7.37402V12.6922ZM9.45703 12.6922H11.5404V10.6089H9.45703V12.6922ZM15.7067 12.6922H13.6234V10.6089H15.7067V12.6922ZM5.29069 16.8589H7.37402V14.7756H5.29069V16.8589ZM11.5404 16.8589H9.45703V14.7756H11.5404V16.8589Z" fill="#333333"/>
</svg>
