<svg width="18" height="18" viewBox="0 0 18 18" fill="none" xmlns="http://www.w3.org/2000/svg">
<path fill-rule="evenodd" clip-rule="evenodd" d="M11.5009 4.94218H13.1676V9.10022L13.1676 9.10876L13.1676 9.1169C13.168 11.1691 13.3264 11.6088 14.0009 11.6088C15.0879 11.6088 15.6676 11.0948 15.6676 9.10885C15.6676 4.70106 13.4568 2.44218 9.00103 2.44218C6.11433 2.44254 3.55581 4.30073 2.66247 7.04573C1.76913 9.79072 2.74394 12.7988 5.07751 14.4981C7.41107 16.1974 10.5732 16.2017 12.9114 14.5088L13.8888 15.8588C10.966 17.9749 7.01338 17.9695 4.09642 15.8454C1.17946 13.7213 -0.0390578 9.96119 1.07762 6.52995C2.1943 3.09871 5.39244 0.775966 9.00093 0.775513C14.3854 0.775513 17.3343 3.78851 17.3343 9.10885C17.3343 12.0629 15.9667 13.2755 14.0009 13.2755C12.881 13.2755 12.2401 12.9144 11.8883 12.1128C11.1394 12.8328 10.1218 13.2754 9.00094 13.2754C6.69975 13.2754 4.83427 11.41 4.83427 9.10876C4.83427 6.80758 6.69975 4.9421 9.00094 4.9421C9.93894 4.9421 10.8045 5.25205 11.5009 5.77512V4.94218ZM11.5009 9.10893C11.5009 10.4896 10.3816 11.6089 9.00093 11.6089C7.62022 11.6089 6.50093 10.4896 6.50093 9.10893C6.50093 7.72821 7.62022 6.60893 9.00093 6.60893C10.3816 6.60893 11.5009 7.72821 11.5009 9.10893Z" fill="#333333"/>
</svg>
