<svg width="194" height="35" viewBox="0 0 194 35" fill="none" xmlns="http://www.w3.org/2000/svg">
<path fill-rule="evenodd" clip-rule="evenodd" d="M0 16.7597V17.8693C0.0503419 17.9907 0.057745 18.631 0.0747724 18.8205C0.102905 19.1373 0.145844 19.4571 0.186561 19.7554C0.408658 21.3757 0.96612 23.1433 1.62871 24.5519C3.81858 29.2026 8.00362 32.7001 13.0519 33.9503C13.8729 34.1531 14.8635 34.3322 15.7193 34.3974C15.8681 34.4085 16.6373 34.4425 16.6994 34.4655H17.73C17.8247 34.4322 18.5258 34.4218 18.7124 34.4003C19.0292 34.3641 19.3313 34.3382 19.6496 34.2945C23.4031 33.7815 26.8419 31.9865 29.3893 29.4506C32.1522 26.6992 34.0504 22.8835 34.3946 18.8249C34.4102 18.6428 34.4228 17.9803 34.4701 17.8701V17.1298C34.4324 17.0521 34.4183 16.933 34.3702 16.8434C34.0082 16.1735 32.8792 16.2949 32.8451 17.2616C32.8089 18.3001 32.7511 19.1195 32.5794 20.1055C32.2936 21.7465 31.6473 23.4386 30.941 24.7029C30.4435 25.5926 29.6958 26.7436 29.008 27.4779C28.8822 27.6119 28.7645 27.7659 28.6386 27.8939C27.3542 29.2026 26.3458 30.025 24.692 30.9443C21.8217 32.5402 18.1823 33.2471 14.3445 32.5728C8.12282 31.4787 2.99238 26.3306 1.88338 20.067C1.186 16.1269 1.96185 12.6849 3.53504 9.74777C4.91352 7.17408 7.21962 4.88832 9.7915 3.51228C11.2033 2.75727 12.6136 2.2295 14.397 1.88382C15.5253 1.66546 16.1472 1.67139 17.2643 1.62549C18.0964 1.59144 18.3378 0.492237 17.6241 0.102148C17.5464 0.0592165 17.4287 0.0399711 17.3546 0H16.7616C16.7076 0.0199856 15.9036 0.0555155 15.7629 0.0643979C15.4579 0.0851237 15.1159 0.128056 14.8213 0.170247C12.1287 0.555895 9.52943 1.56998 7.32327 3.13699C3.87929 5.58411 1.54283 9.00239 0.504159 13.0854C0.310935 13.847 0.11549 14.9736 0.0629273 15.7827C0.0540434 15.9211 0.0185081 16.7072 0 16.7597Z" fill="#EF7F1B"/>
<path fill-rule="evenodd" clip-rule="evenodd" d="M26.8817 9.17952C27.5739 9.96933 28.3668 11.2269 28.8502 12.4216C29.9555 15.1522 30.1621 18.3351 29.1471 21.2486C28.2646 23.7816 26.8291 25.7098 24.7688 27.2924C21.3471 29.9201 16.5594 30.513 12.5187 28.8809C10.9663 28.2539 10.0112 27.5544 8.89854 26.6365C8.65276 26.4337 8.41437 26.1584 8.23373 25.9933C7.79694 25.5936 7.09142 24.6743 6.76938 24.1879C5.64483 22.4884 4.92671 20.5535 4.72387 18.4092C4.68389 17.9865 4.70092 17.5638 4.66538 17.1567C4.59801 16.3906 3.59487 16.1567 3.18177 16.7829C2.98189 17.0864 3.04407 17.5638 3.06406 17.9584C3.20472 20.7571 4.19009 23.4744 5.81066 25.6476C6.00018 25.9015 6.17934 26.1362 6.38885 26.3775C6.4962 26.5011 6.57689 26.6003 6.6946 26.7254L6.99962 27.0533C9.79433 30.0422 14.0519 31.7033 18.2755 31.3827C22.3776 31.0711 26.0103 29.074 28.4549 25.9208C31.8337 21.5624 32.5726 15.2492 29.4373 9.98191C28.7643 8.85161 27.9344 7.82421 27.1268 7.06032C26.9069 6.85232 26.69 6.63026 26.4442 6.43484C25.6469 5.80122 25.1197 5.36376 24.1425 4.83377C22.9921 4.21052 21.8068 3.71606 20.3728 3.39111C19.6414 3.22605 18.864 3.1165 18.0763 3.06838C17.7372 3.04766 17.1465 2.98474 16.8696 3.1313C16.6164 3.26528 16.3758 3.5547 16.4313 3.96699C16.4765 4.30601 16.7312 4.56878 17.0487 4.64502C17.3345 4.71312 18.6419 4.59839 20.5194 5.09951C22.4894 5.6258 24.5645 6.79532 25.9393 8.16026C26.0637 8.28462 26.1303 8.37196 26.2643 8.48965C26.3827 8.59402 26.4619 8.7132 26.5789 8.82867C26.6811 8.9286 26.7832 9.06701 26.8817 9.17952Z" fill="white"/>
<path fill-rule="evenodd" clip-rule="evenodd" d="M16.5108 6.1858C14.1943 6.39601 12.4035 7.02963 10.5949 8.37088C9.21047 9.39755 7.84827 10.969 7.03318 12.918C6.14775 15.0357 5.8916 17.4132 6.46979 19.8404C6.83551 21.3785 7.52549 22.7612 8.43683 23.9574C10.2025 26.275 13.0017 27.9775 16.2687 28.2647C16.9513 28.3246 17.5976 28.4208 17.9122 27.939C18.252 27.4201 17.9144 26.805 17.4021 26.6991C17.1808 26.6532 16.7144 26.6717 16.456 26.6488C14.5511 26.4808 12.7803 25.779 11.3707 24.6428C10.2351 23.7265 9.30597 22.605 8.67966 21.2519C8.25989 20.3445 7.89491 19.2031 7.82014 18.0498C7.65061 15.4421 8.35465 13.3998 9.53325 11.7566C10.5749 10.3043 12.0614 9.02449 14.1758 8.2902C16.4123 7.51372 18.9242 7.65955 20.9845 8.55742C22.8924 9.38867 24.3449 10.7366 25.3162 12.3347C26.155 13.7159 26.6451 15.3177 26.6828 17.0254C26.6902 17.3807 26.7243 17.6124 26.9138 17.8004C27.3247 18.2067 27.9917 18.0802 28.2279 17.5857C28.4529 17.1164 28.1583 15.3466 28.0517 14.8543C27.8111 13.75 27.4209 12.7855 26.9449 11.9054C26.0106 10.177 24.5936 8.75505 22.9893 7.77206C21.3429 6.76316 18.902 5.96817 16.5108 6.1858Z" fill="#009746"/>
<path fill-rule="evenodd" clip-rule="evenodd" d="M16.4296 10.2457C16.4799 10.6054 16.7812 10.9045 17.1603 10.9378C17.3898 10.9578 17.6163 10.9474 17.851 10.9711C20.2333 11.2146 22.2389 12.7283 23.1228 15.0089C23.7077 16.5189 23.6418 18.3783 22.9814 19.7951C22.4965 20.8343 21.9265 21.5442 21.0936 22.2022C19.6078 23.3762 17.5067 23.8477 15.5027 23.2814C13.3683 22.6782 11.7581 20.9757 11.1903 18.9809C11.0822 18.6004 10.9993 18.1903 10.966 17.7669C10.9275 17.2806 10.9919 16.9016 10.6832 16.6329C10.4004 16.3864 9.96285 16.3309 9.63637 16.5892C9.30396 16.8528 9.301 17.1555 9.33358 17.7018C9.38466 18.5538 9.56456 19.3339 9.83774 20.0512C10.8675 22.7581 13.3683 24.7545 16.2652 25.0868C19.9557 25.511 22.6897 23.4798 23.9527 21.4198C27.0206 16.4131 23.8772 10.1369 18.2974 9.38926C17.9739 9.34559 17.2417 9.26121 16.9567 9.36706C16.6494 9.48179 16.3681 9.80082 16.4296 10.2457Z" fill="#E31E25"/>
<path fill-rule="evenodd" clip-rule="evenodd" d="M20.5262 17.4832C20.3878 19.2153 18.8901 20.6824 16.9742 20.5217C15.2581 20.3774 13.7819 18.8844 13.9448 16.9702C14.0928 15.2359 15.5816 13.7955 17.4983 13.9421C19.2129 14.0738 20.678 15.5861 20.5262 17.4832ZM16.7728 12.3336C16.0103 12.4283 15.4669 12.5845 14.8887 12.9021C14.6125 13.0531 14.3823 13.2152 14.1557 13.3899C12.992 14.287 12.165 15.9495 12.3346 17.7067C12.5981 20.4329 15.0597 22.4204 17.71 22.1324C18.9938 21.9933 20.1879 21.3833 20.9504 20.467C21.6663 19.6069 22.3037 18.3515 22.1379 16.7556C21.938 14.8303 20.6972 13.2588 18.9197 12.6045C18.2986 12.3758 17.505 12.2425 16.7728 12.3336Z" fill="#01A0E2"/>
<path d="M38.9609 9.80738V3.59335H40.7695C41.4551 3.59335 41.9015 3.62443 42.1095 3.68661C42.4293 3.78062 42.6973 3.98269 42.9135 4.29506C43.1289 4.60743 43.237 5.01084 43.237 5.50604C43.237 5.88724 43.1748 6.20701 43.0512 6.46757C42.9261 6.72812 42.7684 6.93168 42.5774 7.08046C42.3864 7.2285 42.1909 7.32695 41.9933 7.37432C41.7245 7.43354 41.3351 7.46388 40.8258 7.46388H40.0921V9.80738H38.9609ZM40.0921 4.6437V6.41427H40.7073C41.1508 6.41427 41.4462 6.38096 41.5957 6.31582C41.7453 6.25069 41.8622 6.14928 41.9466 6.00864C42.031 5.87022 42.074 5.7096 42.074 5.52454C42.074 5.2973 42.0147 5.11077 41.8963 4.96347C41.7764 4.81617 41.6268 4.7229 41.4432 4.68589C41.3092 4.6585 41.0405 4.6437 40.6348 4.6437H40.0921ZM46.3049 8.38396L47.3739 8.58308C47.2377 9.01906 47.0201 9.34993 46.7247 9.57865C46.4285 9.8059 46.0576 9.91989 45.6142 9.91989C44.9109 9.91989 44.389 9.66378 44.0521 9.15155C43.7856 8.74074 43.6516 8.22334 43.6516 7.59712C43.6516 6.85099 43.827 6.26475 44.1772 5.84283C44.5274 5.41869 44.9708 5.20774 45.5061 5.20774C46.1072 5.20774 46.5818 5.42906 46.9305 5.8717C47.2777 6.31434 47.4443 6.99237 47.4287 7.90653H44.7524C44.7599 8.2596 44.8457 8.53422 45.0108 8.73112C45.1744 8.92801 45.3802 9.02572 45.6245 9.02572C45.7926 9.02572 45.9333 8.97538 46.0458 8.87398C46.1605 8.77257 46.2464 8.60972 46.3049 8.38396ZM46.3671 7.17742C46.3597 6.83175 46.2805 6.56897 46.128 6.3891C45.9762 6.20849 45.7911 6.11893 45.5727 6.11893C45.3403 6.11893 45.1478 6.21442 44.9953 6.40391C44.8428 6.5934 44.7687 6.85247 44.7717 7.17742H46.3671ZM51.7285 6.63929L50.675 6.84803C50.6395 6.61487 50.5588 6.44018 50.4329 6.32175C50.3071 6.20405 50.1442 6.14484 49.9436 6.14484C49.6771 6.14484 49.4639 6.24772 49.3054 6.45276C49.147 6.65854 49.067 7.00125 49.067 7.48313C49.067 8.01756 49.1477 8.39506 49.3091 8.61638C49.4705 8.83771 49.6867 8.948 49.9569 8.948C50.1598 8.948 50.3263 8.88286 50.4552 8.75406C50.5847 8.62527 50.6765 8.40395 50.7291 8.08862L51.7825 8.28847C51.6737 8.8266 51.4642 9.23298 51.1548 9.50759C50.8453 9.78221 50.43 9.91989 49.9088 9.91989C49.318 9.91989 48.8464 9.71189 48.4948 9.29663C48.1424 8.8799 47.9669 8.30402 47.9669 7.56825C47.9669 6.8236 48.1439 6.24476 48.4963 5.82951C48.8486 5.41425 49.3262 5.20774 49.928 5.20774C50.4196 5.20774 50.8112 5.32617 51.1029 5.56229C51.3924 5.79768 51.6004 6.15668 51.7285 6.63929ZM52.494 5.30322H56.092V9.80738H55.0222V6.26623H53.563V9.80738H52.494V5.30322ZM56.739 5.30322H57.8784L58.8504 8.49795L59.798 5.30322H60.9063L59.4782 9.63787L59.2206 10.4203C59.1258 10.6823 59.0362 10.8814 58.9503 11.0206C58.866 11.1575 58.7667 11.2708 58.6564 11.3559C58.5461 11.4425 58.4092 11.5091 58.2463 11.5572C58.0857 11.6046 57.9021 11.629 57.6977 11.629C57.4927 11.629 57.2898 11.6046 57.0907 11.5572L56.9966 10.6283C57.1647 10.6645 57.3165 10.6838 57.4519 10.6838C57.7014 10.6838 57.8865 10.6024 58.0057 10.4388C58.1256 10.2759 58.2182 10.0672 58.2818 9.81552L56.739 5.30322ZM64.6375 3.44604H65.363C65.3401 3.80356 65.2557 4.07374 65.1098 4.25879C64.964 4.44236 64.6027 4.53489 64.0275 4.53489C63.9601 4.53489 63.8913 4.53415 63.8224 4.53119H63.684C63.3434 4.53119 63.0665 4.57264 62.8533 4.65702C62.6401 4.73918 62.4647 4.90129 62.3292 5.14112C62.1922 5.38242 62.1226 5.77029 62.1174 6.30398C62.2744 5.97459 62.4787 5.7281 62.7297 5.56525C62.9792 5.40167 63.2783 5.32025 63.6233 5.32025C64.1548 5.32025 64.6049 5.55045 64.9743 6.0116C65.3423 6.47201 65.5274 7.0057 65.5274 7.61118C65.5274 8.24332 65.3334 8.78589 64.9455 9.24038C64.5568 9.69264 64.0512 9.91989 63.4256 9.91989C62.9947 9.91989 62.6179 9.8059 62.2914 9.57569C61.9664 9.34697 61.7332 9.03312 61.5933 8.63563C61.4541 8.23814 61.3838 7.57936 61.3838 6.66002C61.3838 5.57784 61.5629 4.80136 61.9205 4.32837C62.2781 3.85538 62.9029 3.61999 63.7935 3.61999H64.3362C64.4865 3.61999 64.5872 3.56152 64.6375 3.44604ZM62.4839 7.5912C62.4839 8.00349 62.5764 8.33066 62.7593 8.57049C62.9429 8.81032 63.1665 8.93023 63.4323 8.93023C63.718 8.93023 63.9534 8.80588 64.137 8.55717C64.3206 8.30846 64.411 7.98869 64.411 7.59564C64.411 7.19519 64.3192 6.87246 64.1333 6.62671C63.9468 6.38096 63.7165 6.25809 63.4434 6.25809C63.1783 6.25809 62.9518 6.37948 62.7645 6.62079C62.5772 6.8621 62.4839 7.18631 62.4839 7.5912ZM66.509 5.30322H70.0907V9.80738H69.0217V6.26623H67.5707V8.29291C67.5707 8.80736 67.5174 9.16932 67.4107 9.37732C67.3027 9.58605 67.1842 9.72151 67.0539 9.78665C66.9251 9.85179 66.7156 9.8851 66.4283 9.8851C66.2581 9.8851 66.0315 9.85919 65.7524 9.8096V8.93467C65.7754 8.93467 65.8353 8.93763 65.9316 8.94356C66.0434 8.95244 66.1307 8.95688 66.1914 8.95688C66.3373 8.95688 66.4261 8.90284 66.4594 8.79773C66.492 8.6904 66.509 8.39506 66.509 7.91097V5.30322ZM71.1472 5.30322H72.1769V8.13377L73.8234 5.30322H74.8769V9.80738H73.8471V6.93612L72.1769 9.80738H71.1472V5.30322ZM75.9274 5.30322H76.9964V7.14263C77.1749 7.11969 77.3014 7.05899 77.3755 6.96054C77.448 6.8621 77.5376 6.6467 77.642 6.31434C77.7797 5.87022 77.9292 5.5882 78.0929 5.46385C78.2557 5.33949 78.4689 5.27731 78.7347 5.27731C78.8162 5.27731 78.9568 5.28472 79.1582 5.29878L79.1626 6.08414C78.8783 6.08414 78.6977 6.11301 78.62 6.17222C78.5408 6.2344 78.4549 6.41945 78.3638 6.72812C78.2387 7.14115 78.0581 7.39726 77.8241 7.49275C78.1624 7.59712 78.4482 7.92503 78.6822 8.47649C78.694 8.50535 78.7081 8.53422 78.7236 8.56605L79.3225 9.80738H78.1713L77.6383 8.50091C77.5287 8.23814 77.434 8.06863 77.3533 7.99313C77.2741 7.91837 77.1541 7.88062 76.9964 7.88062V9.80738H75.9274V5.30322ZM80.6758 6.69185L79.7082 6.50088C79.8178 6.06119 80.0066 5.7355 80.2731 5.52454C80.5396 5.31359 80.9364 5.20774 81.4613 5.20774C81.9388 5.20774 82.2949 5.26991 82.5296 5.39575C82.7621 5.52158 82.9272 5.68073 83.0219 5.87466C83.1174 6.06859 83.1655 6.42241 83.1655 6.94056L83.15 8.32918C83.15 8.72371 83.167 9.0161 83.2003 9.20411C83.2344 9.39212 83.2981 9.59272 83.3913 9.80738H82.3305C82.3031 9.72891 82.2683 9.61344 82.2276 9.46022C82.2105 9.38916 82.1979 9.34253 82.1898 9.32106C82.0077 9.52092 81.813 9.6697 81.6049 9.76963C81.3969 9.86881 81.1756 9.91989 80.9401 9.91989C80.5256 9.91989 80.1976 9.79405 79.9585 9.54238C79.7186 9.29219 79.5994 8.9739 79.5994 8.589C79.5994 8.33585 79.6542 8.10934 79.763 7.90949C79.8726 7.71111 80.0244 7.55789 80.222 7.45204C80.419 7.34693 80.7025 7.2544 81.0727 7.17446C81.5724 7.07083 81.9196 6.97239 82.1121 6.88282V6.76291C82.1121 6.53122 82.061 6.36616 81.9596 6.26623C81.8567 6.16778 81.6642 6.11893 81.3821 6.11893C81.1911 6.11893 81.043 6.16112 80.9364 6.24624C80.8284 6.32989 80.7425 6.47941 80.6758 6.69185ZM82.1121 7.65486C81.9751 7.70519 81.7582 7.76663 81.4606 7.83695C81.1637 7.90801 80.969 7.97759 80.8779 8.0442C80.7388 8.15524 80.6684 8.29439 80.6684 8.46316C80.6684 8.63119 80.724 8.77405 80.8358 8.89618C80.9483 9.01758 81.0897 9.07827 81.2629 9.07827C81.4554 9.07827 81.6397 9.00721 81.8152 8.86657C81.944 8.7585 82.0299 8.62823 82.0706 8.47204C82.098 8.37064 82.1121 8.1767 82.1121 7.89246V7.65486ZM84.1731 5.30322H85.2421V6.95166H86.7872V5.30322H87.8562V9.80738H86.7872V7.91541H85.2421V9.80738H84.1731V5.30322ZM92.4603 6.63929L91.4068 6.84803C91.372 6.61487 91.2913 6.44018 91.1655 6.32175C91.0389 6.20405 90.876 6.14484 90.6761 6.14484C90.4096 6.14484 90.1964 6.24772 90.0372 6.45276C89.8788 6.65854 89.7996 7.00125 89.7996 7.48313C89.7996 8.01756 89.8803 8.39506 90.0417 8.61638C90.203 8.83771 90.4185 8.948 90.6894 8.948C90.8923 8.948 91.0589 8.88286 91.1869 8.75406C91.3172 8.62527 91.4083 8.40395 91.4616 8.08862L92.5151 8.28847C92.4055 8.8266 92.1967 9.23298 91.8865 9.50759C91.5771 9.78221 91.1625 9.91989 90.6413 9.91989C90.0505 9.91989 89.5782 9.71189 89.2273 9.29663C88.8749 8.8799 88.6995 8.30402 88.6995 7.56825C88.6995 6.8236 88.8764 6.24476 89.2288 5.82951C89.5812 5.41425 90.0587 5.20774 90.6606 5.20774C91.1521 5.20774 91.5438 5.32617 91.8347 5.56229C92.1249 5.79768 92.333 6.15668 92.4603 6.63929ZM93.2265 5.30322H94.2955V7.14263C94.474 7.11969 94.5998 7.05899 94.6739 6.96054C94.7471 6.8621 94.8367 6.6467 94.9404 6.31434C95.0788 5.87022 95.2284 5.5882 95.392 5.46385C95.5548 5.33949 95.768 5.27731 96.0331 5.27731C96.1153 5.27731 96.2552 5.28472 96.4573 5.29878L96.461 6.08414C96.1774 6.08414 95.9968 6.11301 95.9183 6.17222C95.8391 6.2344 95.7532 6.41945 95.6622 6.72812C95.5378 7.14115 95.3572 7.39726 95.1225 7.49275C95.4608 7.59712 95.7473 7.92503 95.9813 8.47649C95.9924 8.50535 96.0072 8.53422 96.0227 8.56605L96.6209 9.80738H95.4697L94.9367 8.50091C94.8278 8.23814 94.7323 8.06863 94.6516 7.99313C94.5724 7.91837 94.4532 7.88062 94.2955 7.88062V9.80738H93.2265V5.30322ZM97.148 5.30322H98.1778V8.13377L99.8243 5.30322H100.878V9.80738H99.848V6.93612L98.1778 9.80738H97.148V5.30322ZM101.944 5.30322H102.974V8.13377L104.621 5.30322H105.674V9.80738H104.645V6.93612L102.974 9.80738H101.944V5.30322ZM104.496 3.48972H105.018C104.989 3.87314 104.867 4.17515 104.655 4.39351C104.442 4.61187 104.168 4.72216 103.832 4.72216C103.493 4.72216 103.219 4.61187 103.007 4.39351C102.794 4.17515 102.672 3.87314 102.643 3.48972H103.165C103.184 3.68883 103.246 3.84131 103.356 3.94346C103.464 4.04635 103.624 4.09669 103.832 4.09669C104.038 4.09669 104.197 4.04635 104.306 3.94346C104.415 3.84131 104.478 3.68883 104.496 3.48972ZM38.4375 14.9977H39.5769L40.5489 18.1924L41.4965 14.9977H42.6048L41.1767 19.3323L40.9191 20.1147C40.8243 20.3768 40.7347 20.5759 40.6488 20.7151C40.5644 20.8527 40.4652 20.9652 40.3549 21.0504C40.2446 21.1377 40.1077 21.2036 39.9455 21.2517C39.7841 21.2991 39.6005 21.3242 39.3962 21.3242C39.1911 21.3242 38.9883 21.2991 38.7892 21.2517L38.6951 20.3227C38.8632 20.359 39.0157 20.3783 39.1504 20.3783C39.3999 20.3783 39.585 20.2968 39.7049 20.134C39.8241 19.9704 39.9167 19.7617 39.9803 19.51L38.4375 14.9977ZM43.1682 14.9977H44.2527V16.0754C44.2527 16.3212 44.272 16.5033 44.3112 16.6247C44.3512 16.7446 44.4348 16.8475 44.5637 16.9348C44.691 17.0199 44.8539 17.0629 45.0486 17.0629C45.2388 17.0629 45.4521 17.0155 45.6882 16.9185V14.9977H46.7572V19.5019H45.6882V17.7009C45.2707 17.8253 44.9538 17.8875 44.7354 17.8875C44.4075 17.8875 44.1121 17.8097 43.8507 17.6521C43.5894 17.4959 43.4095 17.2946 43.3125 17.0503C43.2163 16.806 43.1682 16.4803 43.1682 16.074V14.9977ZM50.1635 18.0784L51.2325 18.2783C51.0963 18.7135 50.8786 19.0444 50.584 19.2731C50.2871 19.5004 49.9169 19.6144 49.4727 19.6144C48.7694 19.6144 48.2483 19.3583 47.9114 18.8468C47.6441 18.436 47.5101 17.9178 47.5101 17.2916C47.5101 16.5455 47.6863 15.96 48.0358 15.5373C48.386 15.1132 48.8294 14.9022 49.3654 14.9022C49.9658 14.9022 50.4411 15.1235 50.789 15.5662C51.1362 16.0088 51.3028 16.6869 51.2873 17.601H48.611C48.6184 17.9541 48.7043 18.2287 48.8694 18.4256C49.0337 18.6225 49.2388 18.7209 49.4831 18.7209C49.6512 18.7209 49.7918 18.6699 49.9051 18.5685C50.0191 18.4678 50.105 18.3042 50.1635 18.0784ZM50.2264 16.8719C50.2182 16.5262 50.139 16.2635 49.9865 16.0843C49.8348 15.903 49.6497 15.8134 49.4313 15.8134C49.1988 15.8134 49.0063 15.9089 48.8538 16.0984C48.7021 16.2879 48.628 16.547 48.6303 16.8719H50.2264ZM55.1029 13.1405H55.8292C55.8055 13.498 55.7211 13.7682 55.5752 13.9533C55.4294 14.1376 55.0681 14.2301 54.4929 14.2301C54.4255 14.2301 54.3567 14.2286 54.2878 14.2257H54.1501C53.8088 14.2257 53.5319 14.2671 53.3187 14.3515C53.1055 14.4337 52.93 14.5958 52.7946 14.8356C52.6583 15.0776 52.588 15.4648 52.5828 15.9985C52.7398 15.6691 52.9441 15.4233 53.1951 15.2597C53.4446 15.0961 53.7444 15.0155 54.0887 15.0155C54.6209 15.0155 55.0703 15.2449 55.4397 15.7068C55.8084 16.1665 55.9928 16.7002 55.9928 17.3064C55.9928 17.9385 55.7988 18.4804 55.4116 18.9349C55.0222 19.3871 54.5166 19.6144 53.891 19.6144C53.4609 19.6144 53.0833 19.5004 52.7568 19.2702C52.4318 19.0414 52.1993 18.7276 52.0587 18.3301C51.9195 17.9326 51.8492 17.2746 51.8492 16.3545C51.8492 15.2723 52.0283 14.4958 52.3859 14.0229C52.7442 13.5499 53.3683 13.3145 54.2589 13.3145H54.8016C54.9526 13.3145 55.0525 13.2567 55.1029 13.1405ZM52.9493 17.2857C52.9493 17.698 53.0418 18.0251 53.2254 18.265C53.4083 18.5048 53.6319 18.6255 53.8976 18.6255C54.1834 18.6255 54.4188 18.5011 54.6024 18.2516C54.786 18.0029 54.8771 17.6839 54.8771 17.2901C54.8771 16.8897 54.7846 16.5669 54.5987 16.3212C54.4129 16.0754 54.1827 15.9526 53.9095 15.9526C53.6437 15.9526 53.4179 16.074 53.2306 16.3153C53.0433 16.5566 52.9493 16.8808 52.9493 17.2857ZM56.833 14.9977H57.9021V16.6469H59.4471V14.9977H60.5161V19.5019H59.4471V17.6099H57.9021V19.5019H56.833V14.9977ZM61.3431 17.1946C61.3431 16.7986 61.4304 16.4152 61.6059 16.0451C61.7813 15.6735 62.0301 15.3915 62.3514 15.1961C62.6727 15.0007 63.0303 14.9022 63.4271 14.9022C64.0393 14.9022 64.5398 15.1235 64.9314 15.5662C65.323 16.0103 65.5177 16.5684 65.5177 17.2457C65.5177 17.9282 65.3201 18.4937 64.9262 18.9423C64.5309 19.3901 64.0341 19.6144 63.4345 19.6144C63.0636 19.6144 62.7104 19.5204 62.3736 19.3338C62.0375 19.1473 61.7813 18.8742 61.6059 18.5122C61.4304 18.1525 61.3431 17.7128 61.3431 17.1946ZM62.4432 17.2583C62.4432 17.7054 62.5387 18.0481 62.7282 18.285C62.9192 18.524 63.1539 18.6425 63.433 18.6425C63.7114 18.6425 63.946 18.524 64.1341 18.285C64.3229 18.0481 64.4176 17.7024 64.4176 17.2494C64.4176 16.8082 64.3229 16.4685 64.1341 16.2316C63.946 15.9925 63.7114 15.8741 63.433 15.8741C63.1539 15.8741 62.9192 15.9925 62.7282 16.2316C62.5387 16.4685 62.4432 16.8112 62.4432 17.2583ZM66.2344 17.8438V16.655H68.3413V17.8438H66.2344ZM68.9891 14.9977H70.3239L71.3189 18.1362L72.3302 14.9977H73.6554V19.5019H72.7425V16.5366L71.7624 19.5019H70.8421L69.9019 16.5366V19.5019H68.9891V14.9977ZM77.0712 18.0784L78.1402 18.2783C78.0033 18.7135 77.7864 19.0444 77.491 19.2731C77.1941 19.5004 76.8239 19.6144 76.3805 19.6144C75.6764 19.6144 75.1553 19.3583 74.8184 18.8468C74.5519 18.436 74.4179 17.9178 74.4179 17.2916C74.4179 16.5455 74.5933 15.96 74.9428 15.5373C75.293 15.1132 75.7364 14.9022 76.2724 14.9022C76.8736 14.9022 77.3481 15.1235 77.6968 15.5662C78.044 16.0088 78.2098 16.6869 78.1943 17.601H75.518C75.5262 17.9541 75.6113 18.2287 75.7771 18.4256C75.9407 18.6225 76.1466 18.7209 76.3909 18.7209C76.5582 18.7209 76.6988 18.6699 76.8121 18.5685C76.9268 18.4678 77.0127 18.3042 77.0712 18.0784ZM77.1334 16.8719C77.1253 16.5262 77.046 16.2635 76.8943 16.0843C76.7418 15.903 76.5574 15.8134 76.3383 15.8134C76.1058 15.8134 75.9134 15.9089 75.7616 16.0984C75.6091 16.2879 75.535 16.547 75.5373 16.8719H77.1334ZM78.483 14.9977H82.1432V15.9607H80.8476V19.5019H79.7786V15.9607H78.483V14.9977ZM82.4356 17.1946C82.4356 16.7986 82.5229 16.4152 82.6984 16.0451C82.8739 15.6735 83.1226 15.3915 83.4439 15.1961C83.7645 15.0007 84.1228 14.9022 84.5189 14.9022C85.1318 14.9022 85.6323 15.1235 86.0239 15.5662C86.4156 16.0103 86.6103 16.5684 86.6103 17.2457C86.6103 17.9282 86.4126 18.4937 86.0187 18.9423C85.6234 19.3901 85.1267 19.6144 84.527 19.6144C84.1561 19.6144 83.8022 19.5204 83.4654 19.3338C83.13 19.1473 82.8739 18.8742 82.6984 18.5122C82.5229 18.1525 82.4356 17.7128 82.4356 17.1946ZM83.5357 17.2583C83.5357 17.7054 83.6305 18.0481 83.8207 18.285C84.0117 18.524 84.2457 18.6425 84.5255 18.6425C84.8039 18.6425 85.0378 18.524 85.2266 18.285C85.4154 18.0481 85.5101 17.7024 85.5101 17.2494C85.5101 16.8082 85.4154 16.4685 85.2266 16.2316C85.0378 15.9925 84.8039 15.8741 84.5255 15.8741C84.2457 15.8741 84.0117 15.9925 83.8207 16.2316C83.6305 16.4685 83.5357 16.8112 83.5357 17.2583ZM90.6968 19.5019H87.6297V20.6906H86.7635V18.53H87.201C87.3832 18.3027 87.5327 17.9496 87.6519 17.4678C87.7703 16.9881 87.8422 16.1635 87.8644 14.9977H91.1336V18.53H91.5704V20.6906H90.6968V19.5019ZM90.0728 18.53L90.0765 15.9785H88.7772C88.7342 17.2235 88.5573 18.074 88.2464 18.53H90.0728ZM92.2715 14.9977H93.302V17.8282L94.9485 14.9977H96.002V19.5019H94.9715V16.6306L93.302 19.5019H92.2715V14.9977ZM96.9748 14.9977H98.0593V16.0754C98.0593 16.3212 98.0786 16.5033 98.1178 16.6247C98.1578 16.7446 98.2415 16.8475 98.3703 16.9348C98.4976 17.0199 98.6597 17.0629 98.8552 17.0629C99.0455 17.0629 99.2587 17.0155 99.4948 16.9185V14.9977H100.564V19.5019H99.4948V17.7009C99.0773 17.8253 98.7604 17.8875 98.542 17.8875C98.2141 17.8875 97.9187 17.8097 97.6574 17.6521C97.396 17.4959 97.2161 17.2946 97.1191 17.0503C97.0229 16.806 96.9748 16.4803 96.9748 16.074V14.9977ZM103.97 18.0784L105.039 18.2783C104.903 18.7135 104.685 19.0444 104.391 19.2731C104.094 19.5004 103.723 19.6144 103.279 19.6144C102.576 19.6144 102.055 19.3583 101.718 18.8468C101.451 18.436 101.317 17.9178 101.317 17.2916C101.317 16.5455 101.493 15.96 101.842 15.5373C102.193 15.1132 102.636 14.9022 103.172 14.9022C103.772 14.9022 104.248 15.1235 104.596 15.5662C104.943 16.0088 105.109 16.6869 105.094 17.601H102.418C102.425 17.9541 102.511 18.2287 102.676 18.4256C102.84 18.6225 103.045 18.7209 103.29 18.7209C103.458 18.7209 103.598 18.6699 103.712 18.5685C103.826 18.4678 103.912 18.3042 103.97 18.0784ZM104.033 16.8719C104.025 16.5262 103.946 16.2635 103.793 16.0843C103.641 15.903 103.456 15.8134 103.238 15.8134C103.005 15.8134 102.813 15.9089 102.66 16.0984C102.509 16.2879 102.435 16.547 102.437 16.8719H104.033ZM109.394 16.3345L108.34 16.5425C108.305 16.3093 108.225 16.1347 108.098 16.0162C107.972 15.8985 107.809 15.8393 107.609 15.8393C107.342 15.8393 107.129 15.9422 106.971 16.148C106.812 16.353 106.733 16.6957 106.733 17.1776C106.733 17.7128 106.813 18.0903 106.974 18.3116C107.136 18.5329 107.352 18.6425 107.622 18.6425C107.825 18.6425 107.992 18.5773 108.12 18.4485C108.251 18.3197 108.342 18.0984 108.395 17.7831L109.448 17.983C109.339 18.5211 109.129 18.9275 108.82 19.2021C108.51 19.4767 108.096 19.6144 107.574 19.6144C106.984 19.6144 106.512 19.4064 106.161 18.9911C105.808 18.5744 105.632 17.9992 105.632 17.2627C105.632 16.5181 105.809 15.9392 106.161 15.524C106.514 15.1095 106.991 14.9022 107.594 14.9022C108.086 14.9022 108.476 15.0206 108.768 15.2568C109.058 15.4922 109.266 15.8512 109.394 16.3345ZM110.16 14.9977H111.229V16.8379C111.407 16.8142 111.533 16.7535 111.607 16.655C111.68 16.5566 111.769 16.3412 111.874 16.0088C112.011 15.5647 112.161 15.2827 112.325 15.1583C112.487 15.034 112.701 14.9718 112.966 14.9718C113.048 14.9718 113.189 14.9792 113.39 14.9933L113.394 15.7786C113.111 15.7786 112.929 15.8075 112.852 15.8667C112.773 15.9296 112.687 16.1147 112.596 16.4226C112.47 16.8364 112.29 17.0917 112.056 17.1872C112.394 17.2916 112.68 17.6203 112.914 18.171C112.926 18.1998 112.94 18.2287 112.956 18.2605L113.554 19.5019H112.403L111.87 18.1954C111.76 17.9326 111.666 17.7631 111.585 17.6876C111.506 17.6128 111.386 17.5751 111.229 17.5751V19.5019H110.16V14.9977ZM114.081 14.9977H115.111V17.8282L116.758 14.9977H117.811V19.5019H116.781V16.6306L115.111 19.5019H114.081V14.9977ZM118.877 14.9977H119.907V17.8282L121.554 14.9977H122.607V19.5019H121.577V16.6306L119.907 19.5019H118.877V14.9977ZM121.429 13.1842H121.952C121.922 13.5676 121.799 13.8696 121.588 14.088C121.376 14.3063 121.101 14.4166 120.764 14.4166C120.426 14.4166 120.152 14.3063 119.94 14.088C119.728 13.8696 119.606 13.5676 119.575 13.1842H120.099C120.117 13.3841 120.179 13.5358 120.288 13.6379C120.398 13.7408 120.556 13.7919 120.764 13.7919C120.971 13.7919 121.13 13.7408 121.239 13.6379C121.348 13.5358 121.411 13.3841 121.429 13.1842ZM125.842 14.9977H126.872V17.8282L128.518 14.9977H129.572V19.5019H128.542V16.6306L126.872 19.5019H125.842V14.9977ZM133.633 16.3863L132.666 16.1954C132.775 15.7557 132.963 15.43 133.231 15.219C133.497 15.0081 133.894 14.9022 134.419 14.9022C134.896 14.9022 135.252 14.9644 135.487 15.0902C135.72 15.2161 135.885 15.3752 135.979 15.5691C136.075 15.7631 136.123 16.1176 136.123 16.635L136.107 18.0237C136.107 18.4182 136.124 18.7106 136.158 18.8986C136.192 19.0866 136.256 19.2872 136.349 19.5019H135.288C135.261 19.4234 135.225 19.3079 135.185 19.1547C135.168 19.0836 135.155 19.037 135.147 19.0155C134.965 19.2154 134.77 19.3642 134.562 19.4641C134.354 19.564 134.133 19.6144 133.898 19.6144C133.482 19.6144 133.155 19.4885 132.915 19.2369C132.676 18.9867 132.557 18.6684 132.557 18.2835C132.557 18.0303 132.611 17.8038 132.72 17.604C132.83 17.4056 132.982 17.2524 133.179 17.1473C133.376 17.0414 133.659 16.9489 134.03 16.8697C134.53 16.7653 134.877 16.6669 135.07 16.5773V16.4574C135.07 16.2257 135.018 16.0606 134.917 15.9607C134.814 15.863 134.622 15.8134 134.34 15.8134C134.149 15.8134 134.001 15.8556 133.894 15.9407C133.786 16.0244 133.7 16.1739 133.633 16.3863ZM135.07 17.3493C134.933 17.4004 134.716 17.4611 134.417 17.5314C134.121 17.6025 133.926 17.6721 133.835 17.7387C133.696 17.8497 133.626 17.9889 133.626 18.1576C133.626 18.3257 133.681 18.4693 133.793 18.5907C133.905 18.7121 134.047 18.7728 134.22 18.7728C134.412 18.7728 134.597 18.7017 134.773 18.5618C134.901 18.453 134.987 18.3227 135.027 18.1665C135.055 18.0651 135.07 17.8719 135.07 17.5869V17.3493ZM137.131 14.9977H138.2V16.6469H139.745V14.9977H140.814V19.5019H139.745V17.6099H138.2V19.5019H137.131V14.9977ZM142.687 16.3863L141.719 16.1954C141.828 15.7557 142.017 15.43 142.283 15.219C142.55 15.0081 142.947 14.9022 143.472 14.9022C143.95 14.9022 144.306 14.9644 144.54 15.0902C144.773 15.2161 144.938 15.3752 145.033 15.5691C145.128 15.7631 145.176 16.1176 145.176 16.635L145.16 18.0237C145.16 18.4182 145.177 18.7106 145.211 18.8986C145.245 19.0866 145.309 19.2872 145.402 19.5019H144.341C144.314 19.4234 144.278 19.3079 144.238 19.1547C144.221 19.0836 144.208 19.037 144.201 19.0155C144.019 19.2154 143.823 19.3642 143.615 19.4641C143.407 19.564 143.186 19.6144 142.951 19.6144C142.536 19.6144 142.208 19.4885 141.969 19.2369C141.729 18.9867 141.61 18.6684 141.61 18.2835C141.61 18.0303 141.664 17.8038 141.774 17.604C141.883 17.4056 142.035 17.2524 142.233 17.1473C142.429 17.0414 142.713 16.9489 143.084 16.8697C143.582 16.7653 143.93 16.6669 144.122 16.5773V16.4574C144.122 16.2257 144.072 16.0606 143.97 15.9607C143.868 15.863 143.675 15.8134 143.393 15.8134C143.202 15.8134 143.053 15.8556 142.947 15.9407C142.838 16.0244 142.753 16.1739 142.687 16.3863ZM144.122 17.3493C143.986 17.4004 143.769 17.4611 143.471 17.5314C143.175 17.6025 142.979 17.6721 142.888 17.7387C142.749 17.8497 142.679 17.9889 142.679 18.1576C142.679 18.3257 142.735 18.4693 142.847 18.5907C142.958 18.7121 143.101 18.7728 143.273 18.7728C143.466 18.7728 143.651 18.7017 143.826 18.5618C143.955 18.453 144.041 18.3227 144.081 18.1665C144.108 18.0651 144.122 17.8719 144.122 17.5869V17.3493ZM146.519 14.9977H150.101V19.5019H149.032V15.9607H147.58V17.9874C147.58 18.5026 147.528 18.8638 147.421 19.0718C147.313 19.2805 147.195 19.416 147.064 19.4811C146.935 19.5463 146.726 19.5796 146.439 19.5796C146.268 19.5796 146.042 19.5537 145.763 19.5048V18.6292C145.786 18.6292 145.846 18.6321 145.942 18.638C146.054 18.6469 146.141 18.6514 146.202 18.6514C146.348 18.6514 146.436 18.5973 146.47 18.4922C146.502 18.3849 146.519 18.0903 146.519 17.6054V14.9977ZM151.157 14.9977H152.187V17.8282L153.834 14.9977H154.887V19.5019H153.857V16.6306L152.187 19.5019H151.157V14.9977ZM155.501 14.9977H159.161V15.9607H157.866V19.5019H156.797V15.9607H155.501V14.9977ZM159.775 14.9977H160.805V17.8282L162.451 14.9977H163.505V19.5019H162.475V16.6306L160.805 19.5019H159.775V14.9977ZM164.477 14.9977H165.562V16.0754C165.562 16.3212 165.582 16.5033 165.62 16.6247C165.661 16.7446 165.744 16.8475 165.873 16.9348C166 17.0199 166.163 17.0629 166.359 17.0629C166.548 17.0629 166.761 17.0155 166.998 16.9185V14.9977H168.067V19.5019H166.998V17.7009C166.581 17.8253 166.263 17.8875 166.045 17.8875C165.717 17.8875 165.422 17.8097 165.161 17.6521C164.899 17.4959 164.719 17.2946 164.622 17.0503C164.525 16.806 164.477 16.4803 164.477 16.074V14.9977ZM171.473 18.0784L172.542 18.2783C172.405 18.7135 172.189 19.0444 171.893 19.2731C171.597 19.5004 171.226 19.6144 170.783 19.6144C170.079 19.6144 169.557 19.3583 169.221 18.8468C168.954 18.436 168.82 17.9178 168.82 17.2916C168.82 16.5455 168.996 15.96 169.346 15.5373C169.695 15.1132 170.139 14.9022 170.675 14.9022C171.276 14.9022 171.75 15.1235 172.099 15.5662C172.446 16.0088 172.613 16.6869 172.597 17.601H169.92C169.928 17.9541 170.014 18.2287 170.179 18.4256C170.343 18.6225 170.549 18.7209 170.793 18.7209C170.961 18.7209 171.101 18.6699 171.214 18.5685C171.329 18.4678 171.415 18.3042 171.473 18.0784ZM171.536 16.8719C171.528 16.5262 171.448 16.2635 171.296 16.0843C171.144 15.903 170.96 15.8134 170.741 15.8134C170.508 15.8134 170.316 15.9089 170.164 16.0984C170.011 16.2879 169.937 16.547 169.94 16.8719H171.536ZM176.896 16.3345L175.843 16.5425C175.808 16.3093 175.727 16.1347 175.601 16.0162C175.475 15.8985 175.313 15.8393 175.112 15.8393C174.846 15.8393 174.632 15.9422 174.474 16.148C174.315 16.353 174.236 16.6957 174.236 17.1776C174.236 17.7128 174.316 18.0903 174.478 18.3116C174.639 18.5329 174.854 18.6425 175.125 18.6425C175.328 18.6425 175.495 18.5773 175.623 18.4485C175.753 18.3197 175.844 18.0984 175.898 17.7831L176.951 17.983C176.842 18.5211 176.633 18.9275 176.323 19.2021C176.014 19.4767 175.598 19.6144 175.077 19.6144C174.487 19.6144 174.014 19.4064 173.663 18.9911C173.311 18.5744 173.135 17.9992 173.135 17.2627C173.135 16.5181 173.312 15.9392 173.665 15.524C174.017 15.1095 174.495 14.9022 175.097 14.9022C175.588 14.9022 175.98 15.0206 176.271 15.2568C176.561 15.4922 176.769 15.8512 176.896 16.3345ZM177.662 14.9977H178.732V16.8379C178.91 16.8142 179.036 16.7535 179.11 16.655C179.183 16.5566 179.273 16.3412 179.376 16.0088C179.515 15.5647 179.664 15.2827 179.828 15.1583C179.991 15.034 180.204 14.9718 180.469 14.9718C180.551 14.9718 180.692 14.9792 180.893 14.9933L180.897 15.7786C180.613 15.7786 180.433 15.8075 180.355 15.8667C180.275 15.9296 180.189 16.1147 180.098 16.4226C179.974 16.8364 179.793 17.0917 179.558 17.1872C179.897 17.2916 180.183 17.6203 180.417 18.171C180.429 18.1998 180.443 18.2287 180.459 18.2605L181.057 19.5019H179.906L179.373 18.1954C179.264 17.9326 179.168 17.7631 179.088 17.6876C179.008 17.6128 178.889 17.5751 178.732 17.5751V19.5019H177.662V14.9977ZM181.584 14.9977H182.614V17.8282L184.26 14.9977H185.314V19.5019H184.284V16.6306L182.614 19.5019H181.584V14.9977ZM186.381 14.9977H187.41V17.8282L189.057 14.9977H190.11V19.5019H189.08V16.6306L187.41 19.5019H186.381V14.9977ZM188.932 13.1842H189.455C189.425 13.5676 189.303 13.8696 189.091 14.088C188.878 14.3063 188.604 14.4166 188.268 14.4166C187.929 14.4166 187.655 14.3063 187.443 14.088C187.231 13.8696 187.108 13.5676 187.079 13.1842H187.601C187.62 13.3841 187.682 13.5358 187.792 13.6379C187.9 13.7408 188.06 13.7919 188.268 13.7919C188.474 13.7919 188.633 13.7408 188.742 13.6379C188.852 13.5358 188.914 13.3841 188.932 13.1842ZM38.9135 24.6922H39.9833V28.2333H41.5202V24.6922H42.5892V28.2333H43.0105V30.3851H42.1443V29.1963H38.9135V24.6922ZM46.0902 27.7729L47.1592 27.9728C47.023 28.408 46.8054 28.7389 46.5107 28.9676C46.2138 29.1949 45.8429 29.3088 45.3995 29.3088C44.6962 29.3088 44.175 29.0527 43.8382 28.5413C43.5709 28.1304 43.4369 27.6123 43.4369 26.9861C43.4369 26.24 43.6131 25.6544 43.9625 25.2318C44.3127 24.8084 44.7562 24.5967 45.2921 24.5967C45.8925 24.5967 46.3671 24.818 46.7158 25.2607C47.063 25.7033 47.2296 26.3821 47.214 27.2955H44.5378C44.5452 27.6486 44.631 27.9232 44.7961 28.1201C44.9605 28.317 45.1655 28.4154 45.4099 28.4154C45.5779 28.4154 45.7186 28.3643 45.8318 28.2637C45.9458 28.1623 46.0317 27.9987 46.0902 27.7729ZM46.1531 26.5671C46.145 26.2214 46.0658 25.9579 45.9133 25.7788C45.7615 25.5975 45.5764 25.5079 45.358 25.5079C45.1256 25.5079 44.9331 25.6034 44.7806 25.7929C44.6288 25.9824 44.5548 26.2414 44.557 26.5671H46.1531ZM48.0424 24.6922H49.1115V26.3414H50.6565V24.6922H51.7255V29.1963H50.6565V27.3044H49.1115V29.1963H48.0424V24.6922ZM52.3185 24.6922H55.9787V25.6559H54.6831V29.1963H53.6141V25.6559H52.3185V24.6922Z" fill="white"/>
<path d="M56.5938 24.6919H57.5924V25.3529C57.7227 25.1272 57.8967 24.9451 58.1181 24.8052C58.3387 24.666 58.5852 24.5964 58.854 24.5964C59.3233 24.5964 59.7231 24.8022 60.0503 25.213C60.3783 25.6224 60.5419 26.1945 60.5419 26.9266C60.5419 27.6801 60.3768 28.2649 60.0466 28.6824C59.7164 29.1006 59.3159 29.3086 58.8451 29.3086C58.6215 29.3086 58.4186 29.2597 58.2365 29.1598C58.0559 29.0614 57.8634 28.8919 57.6628 28.652V30.9052H56.5938V24.6919ZM57.6472 26.8748C57.6472 27.3826 57.7368 27.7571 57.9174 27.9999C58.0973 28.2412 58.3172 28.3626 58.5748 28.3626C58.8229 28.3626 59.0294 28.2516 59.1952 28.0288C59.3603 27.806 59.4418 27.4418 59.4418 26.934C59.4418 26.4595 59.3574 26.1079 59.1871 25.8785C59.0183 25.6483 58.8073 25.5343 58.5563 25.5343C58.295 25.5343 58.0774 25.6468 57.9063 25.8726C57.7331 26.0983 57.6472 26.4322 57.6472 26.8748ZM63.5128 24.6919H67.11V29.1961H66.041V25.6557H64.5818V29.1961H63.5128V24.6919ZM68.0228 26.8889C68.0228 26.4928 68.1102 26.1094 68.2857 25.7393C68.4611 25.3677 68.7099 25.0857 69.0312 24.8903C69.3525 24.6949 69.71 24.5964 70.1068 24.5964C70.7191 24.5964 71.2196 24.8178 71.6112 25.2604C72.0028 25.7045 72.1975 26.2626 72.1975 26.9399C72.1975 27.6224 71.9999 28.1879 71.606 28.6365C71.2107 29.0843 70.7139 29.3086 70.1142 29.3086C69.7433 29.3086 69.3902 29.2146 69.0534 29.0281C68.7173 28.8415 68.4611 28.5684 68.2857 28.2064C68.1102 27.8467 68.0228 27.407 68.0228 26.8889ZM69.123 26.9525C69.123 27.3996 69.2185 27.7423 69.408 27.9799C69.599 28.2183 69.8337 28.3367 70.1128 28.3367C70.3911 28.3367 70.6258 28.2183 70.8139 27.9799C71.0026 27.7423 71.0974 27.3966 71.0974 26.9444C71.0974 26.5032 71.0026 26.1627 70.8139 25.9258C70.6258 25.6875 70.3911 25.5683 70.1128 25.5683C69.8337 25.5683 69.599 25.6875 69.408 25.9258C69.2185 26.1627 69.123 26.5062 69.123 26.9525ZM77.5249 22.9828H78.5939V25.2708C78.7227 25.0494 78.8774 24.8829 79.0566 24.7719C79.2365 24.6601 79.4416 24.6053 79.6718 24.6053C80.1049 24.6053 80.4588 24.84 80.7334 25.307C81.0081 25.7756 81.1458 26.3337 81.1458 26.9843C81.1458 27.6379 80.9925 28.1879 80.6838 28.6365C80.3773 29.0843 80.0131 29.3086 79.5926 29.3086C79.4031 29.3086 79.2247 29.2553 79.0566 29.1494C78.8908 29.0443 78.736 28.8867 78.5939 28.6765V30.9052H77.5249V28.6765C77.3701 28.8867 77.2051 29.0443 77.0296 29.1494C76.8534 29.2553 76.6668 29.3086 76.4684 29.3086C76.0346 29.3086 75.6741 29.0828 75.3905 28.6335C75.107 28.1835 74.9656 27.618 74.9656 26.9355C74.9656 26.2597 75.1277 25.7001 75.452 25.2589C75.7755 24.8178 76.1264 24.5964 76.504 24.5964C76.7083 24.5964 76.8956 24.6505 77.0659 24.7571C77.2347 24.8659 77.3887 25.0265 77.5249 25.2404V22.9828ZM76.8105 25.5076C76.6143 25.5076 76.4418 25.6409 76.2945 25.9059C76.1479 26.1701 76.0731 26.5188 76.0731 26.9525C76.0731 27.3892 76.1427 27.7394 76.2789 28.0029C76.4166 28.2656 76.5869 28.3974 76.7912 28.3974C76.9985 28.3974 77.174 28.2656 77.3168 28.0029C77.4612 27.7394 77.533 27.3796 77.533 26.9222C77.533 26.4277 77.4545 26.0672 77.2983 25.8437C77.1429 25.6194 76.98 25.5076 76.8105 25.5076ZM79.3142 25.5165C79.0958 25.5165 78.9189 25.6586 78.7827 25.9421C78.6457 26.2264 78.5784 26.5809 78.5784 27.008C78.5784 27.4344 78.6509 27.7727 78.7967 28.0229C78.9411 28.273 79.1143 28.3974 79.3142 28.3974C79.5134 28.3974 79.6851 28.256 79.8295 27.974C79.9739 27.692 80.0457 27.3574 80.0457 26.9747C80.0457 26.5654 79.979 26.2197 79.848 25.9377C79.7162 25.6572 79.5385 25.5165 79.3142 25.5165ZM82.0038 24.6919H83.0344V27.5225L84.6808 24.6919H85.7343V29.1961H84.7038V26.3248L83.0344 29.1961H82.0038V24.6919ZM87.916 27.3559V26.5839C88.1026 26.5839 88.2373 26.5706 88.3225 26.5432C88.4054 26.5158 88.4846 26.4507 88.5601 26.347C88.6356 26.2427 88.6734 26.1242 88.6734 25.9895C88.6734 25.8481 88.6267 25.7149 88.5342 25.595C88.4417 25.4728 88.3025 25.4121 88.1181 25.4121C87.976 25.4121 87.8487 25.4455 87.7369 25.5136C87.6251 25.5802 87.5237 25.7408 87.4326 25.9939L86.5272 25.7771C86.6183 25.3833 86.8144 25.0887 87.1143 24.8918C87.4134 24.6949 87.7554 24.5964 88.1374 24.5964C88.6253 24.5964 89.0021 24.7208 89.2701 24.971C89.5381 25.2197 89.6721 25.5328 89.6721 25.9096C89.6721 26.1457 89.6151 26.3396 89.4988 26.4943C89.3834 26.649 89.2012 26.7919 88.9517 26.9251C89.2508 27.0162 89.4744 27.1539 89.6217 27.3374C89.7698 27.521 89.8438 27.7497 89.8438 28.0243C89.8438 28.3745 89.6965 28.6765 89.4026 28.9296C89.1087 29.1828 88.6852 29.3086 88.1322 29.3086C87.1683 29.3086 86.579 28.8896 86.3636 28.0502L87.3386 27.8511C87.4963 28.2908 87.7561 28.5106 88.1189 28.5106C88.321 28.5106 88.4809 28.4514 88.6016 28.3337C88.723 28.2168 88.783 28.0791 88.783 27.92C88.783 27.7453 88.72 27.6076 88.5942 27.5069C88.4676 27.407 88.3025 27.3559 88.0996 27.3559H87.916ZM90.6789 24.6919H91.7087V27.5225L93.3552 24.6919H94.4087V29.1961H93.3789V26.3248L91.7087 29.1961H90.6789V24.6919ZM95.3814 24.6919H96.466V25.7697C96.466 26.0154 96.486 26.1975 96.5245 26.3189C96.5652 26.4396 96.6481 26.5417 96.777 26.629C96.9043 26.7142 97.0672 26.7571 97.2619 26.7571C97.4521 26.7571 97.6653 26.7097 97.9022 26.6128V24.6919H98.9713V29.1961H97.9022V27.3952C97.4847 27.5195 97.1671 27.5817 96.9487 27.5817C96.6207 27.5817 96.3261 27.504 96.064 27.3463C95.8027 27.1901 95.6235 26.9888 95.5258 26.7445C95.4296 26.5002 95.3814 26.1746 95.3814 25.7682V24.6919ZM102.377 27.7727L103.447 27.9725C103.31 28.4078 103.093 28.7386 102.797 28.9674C102.501 29.1946 102.13 29.3086 101.687 29.3086C100.983 29.3086 100.462 29.0525 100.125 28.541C99.8582 28.1302 99.7242 27.612 99.7242 26.9858C99.7242 26.2397 99.8996 25.6542 100.25 25.2315C100.599 24.8081 101.043 24.5964 101.579 24.5964C102.18 24.5964 102.654 24.8178 103.003 25.2604C103.35 25.703 103.517 26.3818 103.501 27.2952H100.824C100.832 27.6483 100.918 27.9229 101.083 28.1198C101.247 28.3167 101.453 28.4152 101.697 28.4152C101.864 28.4152 102.005 28.3641 102.118 28.2634C102.233 28.162 102.319 27.9984 102.377 27.7727ZM102.44 26.5669C102.432 26.2212 102.352 25.9577 102.201 25.7785C102.048 25.5972 101.864 25.5076 101.645 25.5076C101.412 25.5076 101.22 25.6031 101.068 25.7926C100.915 25.9821 100.841 26.2412 100.844 26.5669H102.44ZM107.8 26.0287L106.747 26.2367C106.712 26.0043 106.631 25.8289 106.506 25.7104C106.379 25.5935 106.217 25.5343 106.016 25.5343C105.75 25.5343 105.536 25.6364 105.377 25.8422C105.219 26.0472 105.14 26.39 105.14 26.8718C105.14 27.407 105.22 27.7845 105.382 28.0058C105.543 28.2272 105.759 28.3367 106.029 28.3367C106.232 28.3367 106.398 28.2716 106.527 28.1428C106.657 28.014 106.748 27.7934 106.802 27.4781L107.855 27.6772C107.746 28.2153 107.537 28.6217 107.227 28.8963C106.917 29.1717 106.503 29.3086 105.981 29.3086C105.391 29.3086 104.918 29.1006 104.567 28.6853C104.215 28.2686 104.04 27.6935 104.04 26.957C104.04 26.2123 104.216 25.6335 104.569 25.219C104.921 24.8037 105.399 24.5964 106.001 24.5964C106.492 24.5964 106.884 24.7156 107.175 24.951C107.465 25.1871 107.673 25.5454 107.8 26.0287ZM108.567 24.6919H109.636V26.5321C109.814 26.5084 109.94 26.4477 110.014 26.3492C110.087 26.2515 110.177 26.0354 110.28 25.703C110.419 25.2589 110.568 24.9769 110.732 24.8525C110.895 24.7282 111.108 24.666 111.373 24.666C111.455 24.666 111.595 24.6734 111.797 24.6875L111.801 25.4728C111.518 25.4728 111.337 25.5017 111.259 25.5617C111.179 25.6238 111.093 25.8089 111.002 26.1168C110.878 26.5306 110.696 26.7867 110.463 26.8822C110.801 26.9858 111.087 27.3145 111.321 27.8652C111.333 27.8941 111.347 27.9229 111.363 27.9548L111.961 29.1961H110.81L110.277 27.8896C110.168 27.6268 110.072 27.4573 109.992 27.3826C109.912 27.3071 109.793 27.2693 109.636 27.2693V29.1961H108.567V24.6919ZM112.167 26.8889C112.167 26.4928 112.253 26.1094 112.43 25.7393C112.605 25.3677 112.853 25.0857 113.174 24.8903C113.496 24.6949 113.853 24.5964 114.25 24.5964C114.862 24.5964 115.363 24.8178 115.755 25.2604C116.146 25.7045 116.341 26.2626 116.341 26.9399C116.341 27.6224 116.144 28.1879 115.749 28.6365C115.354 29.0843 114.857 29.3086 114.257 29.3086C113.887 29.3086 113.533 29.2146 113.197 29.0281C112.861 28.8415 112.605 28.5684 112.43 28.2064C112.253 27.8467 112.167 27.407 112.167 26.8889ZM113.267 26.9525C113.267 27.3996 113.362 27.7423 113.552 27.9799C113.743 28.2183 113.977 28.3367 114.257 28.3367C114.535 28.3367 114.769 28.2183 114.958 27.9799C115.146 27.7423 115.241 27.3966 115.241 26.9444C115.241 26.5032 115.146 26.1627 114.958 25.9258C114.769 25.6875 114.535 25.5683 114.257 25.5683C113.977 25.5683 113.743 25.6875 113.552 25.9258C113.362 26.1627 113.267 26.5062 113.267 26.9525ZM117.151 24.6919H118.182V27.5225L119.828 24.6919H120.882V29.1961H119.851V26.3248L118.182 29.1961H117.151V24.6919ZM119.703 22.8784H120.226C120.196 23.2618 120.074 23.5639 119.862 23.7822C119.65 24.0006 119.375 24.1109 119.038 24.1109C118.701 24.1109 118.426 24.0006 118.214 23.7822C118.002 23.5639 117.88 23.2618 117.85 22.8784H118.373C118.391 23.0783 118.454 23.23 118.562 23.3329C118.672 23.4351 118.83 23.4861 119.038 23.4861C119.246 23.4861 119.404 23.4351 119.514 23.3329C119.623 23.23 119.685 23.0783 119.703 22.8784ZM124.101 24.6919H125.17V26.5321C125.347 26.5084 125.474 26.4477 125.548 26.3492C125.621 26.2515 125.71 26.0354 125.815 25.703C125.952 25.2589 126.102 24.9769 126.266 24.8525C126.428 24.7282 126.642 24.666 126.907 24.666C126.989 24.666 127.129 24.6734 127.331 24.6875L127.335 25.4728C127.052 25.4728 126.87 25.5017 126.793 25.5617C126.713 25.6238 126.627 25.8089 126.536 26.1168C126.411 26.5306 126.231 26.7867 125.997 26.8822C126.335 26.9858 126.621 27.3145 126.855 27.8652C126.867 27.8941 126.881 27.9229 126.897 27.9548L127.495 29.1961H126.344L125.811 27.8896C125.701 27.6268 125.607 27.4573 125.526 27.3826C125.447 27.3071 125.327 27.2693 125.17 27.2693V29.1961H124.101V24.6919ZM127.538 24.6919H128.677L129.649 27.8867L130.597 24.6919H131.705L130.277 29.0266L130.02 29.809C129.924 30.071 129.835 30.2709 129.749 30.4093C129.664 30.547 129.565 30.6595 129.455 30.7446C129.344 30.8319 129.207 30.8986 129.045 30.9459C128.884 30.994 128.7 31.0185 128.496 31.0185C128.291 31.0185 128.088 30.994 127.889 30.9459L127.795 30.0177C127.963 30.0532 128.116 30.0725 128.25 30.0725C128.5 30.0725 128.685 29.9911 128.805 29.8282C128.924 29.6646 129.016 29.4559 129.08 29.205L127.538 24.6919ZM132.579 24.6919H136.161V29.1961H135.092V25.6557H133.64V27.6816C133.64 28.1968 133.587 28.558 133.48 28.766C133.372 28.9748 133.253 29.111 133.124 29.1754C132.995 29.2405 132.785 29.2738 132.498 29.2738C132.328 29.2738 132.101 29.2479 131.822 29.199V28.3241C131.845 28.3241 131.905 28.3263 132.001 28.3323C132.113 28.3411 132.2 28.3456 132.261 28.3456C132.407 28.3456 132.495 28.2923 132.529 28.1864C132.562 28.0791 132.579 27.7845 132.579 27.2997V24.6919ZM137.271 24.6919H138.34V26.5669H139.414C139.836 26.5669 140.158 26.6002 140.385 26.6675C140.611 26.7356 140.798 26.8822 140.948 27.1057C141.097 27.33 141.173 27.5906 141.173 27.8867C141.173 28.3226 141.039 28.6491 140.771 28.8674C140.503 29.0858 140.103 29.1961 139.567 29.1961H137.271V24.6919ZM138.34 28.4322H139.34C139.653 28.4322 139.853 28.3759 139.941 28.2649C140.028 28.1516 140.072 28.0184 140.072 27.8637C140.072 27.6483 139.997 27.4995 139.845 27.4174C139.694 27.3359 139.425 27.2952 139.039 27.2952H138.34V28.4322ZM140.875 24.6919H144.535V25.6557H143.24V29.1961H142.171V25.6557H140.875V24.6919ZM144.859 24.6919H145.998L146.969 27.8867L147.918 24.6919H149.026L147.598 29.0266L147.34 29.809C147.245 30.071 147.155 30.2709 147.069 30.4093C146.985 30.547 146.886 30.6595 146.775 30.7446C146.665 30.8319 146.529 30.8986 146.366 30.9459C146.205 30.994 146.022 31.0185 145.817 31.0185C145.612 31.0185 145.409 30.994 145.21 30.9459L145.116 30.0177C145.284 30.0532 145.436 30.0725 145.572 30.0725C145.821 30.0725 146.005 29.9911 146.125 29.8282C146.245 29.6646 146.337 29.4559 146.401 29.205L144.859 24.6919ZM149.58 24.6919H150.578V25.3529C150.709 25.1272 150.883 24.9451 151.104 24.8052C151.325 24.666 151.571 24.5964 151.84 24.5964C152.309 24.5964 152.709 24.8022 153.036 25.213C153.364 25.6224 153.528 26.1945 153.528 26.9266C153.528 27.6801 153.363 28.2649 153.033 28.6824C152.702 29.1006 152.302 29.3086 151.831 29.3086C151.607 29.3086 151.405 29.2597 151.222 29.1598C151.041 29.0614 150.849 28.8919 150.649 28.652V30.9052H149.58V24.6919ZM150.633 26.8748C150.633 27.3826 150.723 27.7571 150.903 27.9999C151.083 28.2412 151.303 28.3626 151.56 28.3626C151.809 28.3626 152.015 28.2516 152.18 28.0288C152.346 27.806 152.428 27.4418 152.428 26.934C152.428 26.4595 152.343 26.1079 152.173 25.8785C152.004 25.6483 151.793 25.5343 151.542 25.5343C151.281 25.5343 151.063 25.6468 150.892 25.8726C150.719 26.0983 150.633 26.4322 150.633 26.8748ZM156.719 27.7727L157.788 27.9725C157.651 28.4078 157.434 28.7386 157.138 28.9674C156.842 29.1946 156.471 29.3086 156.028 29.3086C155.324 29.3086 154.803 29.0525 154.466 28.541C154.199 28.1302 154.065 27.612 154.065 26.9858C154.065 26.2397 154.241 25.6542 154.591 25.2315C154.94 24.8081 155.384 24.5964 155.92 24.5964C156.521 24.5964 156.995 24.8178 157.344 25.2604C157.691 25.703 157.858 26.3818 157.842 27.2952H155.165C155.174 27.6483 155.259 27.9229 155.425 28.1198C155.588 28.3167 155.794 28.4152 156.038 28.4152C156.206 28.4152 156.346 28.3641 156.459 28.2634C156.574 28.162 156.66 27.9984 156.719 27.7727ZM156.781 26.5669C156.773 26.2212 156.693 25.9577 156.542 25.7785C156.389 25.5972 156.205 25.5076 155.986 25.5076C155.753 25.5076 155.561 25.6031 155.409 25.7926C155.256 25.9821 155.182 26.2412 155.185 26.5669H156.781ZM160.854 24.6919H161.884V27.5225L163.53 24.6919H164.584V29.1961H163.554V26.3248L161.884 29.1961H160.854V24.6919ZM171.377 26.0287L170.324 26.2367C170.289 26.0043 170.208 25.8289 170.081 25.7104C169.956 25.5935 169.793 25.5343 169.593 25.5343C169.326 25.5343 169.112 25.6364 168.954 25.8422C168.795 26.0472 168.716 26.39 168.716 26.8718C168.716 27.407 168.797 27.7845 168.958 28.0058C169.119 28.2272 169.335 28.3367 169.605 28.3367C169.808 28.3367 169.975 28.2716 170.104 28.1428C170.234 28.014 170.325 27.7934 170.378 27.4781L171.432 27.6772C171.322 28.2153 171.113 28.6217 170.803 28.8963C170.494 29.1717 170.079 29.3086 169.557 29.3086C168.967 29.3086 168.495 29.1006 168.144 28.6853C167.792 28.2686 167.615 27.6935 167.615 26.957C167.615 26.2123 167.792 25.6335 168.145 25.219C168.498 24.8037 168.975 24.5964 169.577 24.5964C170.069 24.5964 170.46 24.7156 170.751 24.951C171.042 25.1871 171.25 25.5454 171.377 26.0287ZM172.143 24.6919H175.74V29.1961H174.671V25.6557H173.212V29.1961H172.143V24.6919ZM176.653 26.8889C176.653 26.4928 176.741 26.1094 176.916 25.7393C177.092 25.3677 177.34 25.0857 177.662 24.8903C177.982 24.6949 178.34 24.5964 178.737 24.5964C179.35 24.5964 179.85 24.8178 180.242 25.2604C180.633 25.7045 180.828 26.2626 180.828 26.9399C180.828 27.6224 180.63 28.1879 180.236 28.6365C179.841 29.0843 179.344 29.3086 178.745 29.3086C178.374 29.3086 178.02 29.2146 177.683 29.0281C177.348 28.8415 177.092 28.5684 176.916 28.2064C176.741 27.8467 176.653 27.407 176.653 26.8889ZM177.753 26.9525C177.753 27.3996 177.849 27.7423 178.038 27.9799C178.229 28.2183 178.463 28.3367 178.743 28.3367C179.022 28.3367 179.255 28.2183 179.444 27.9799C179.633 27.7423 179.728 27.3966 179.728 26.9444C179.728 26.5032 179.633 26.1627 179.444 25.9258C179.255 25.6875 179.022 25.5683 178.743 25.5683C178.463 25.5683 178.229 25.6875 178.038 25.9258C177.849 26.1627 177.753 26.5062 177.753 26.9525ZM181.639 24.6919H182.637V25.3529C182.767 25.1272 182.942 24.9451 183.163 24.8052C183.384 24.666 183.629 24.5964 183.899 24.5964C184.368 24.5964 184.767 24.8022 185.095 25.213C185.423 25.6224 185.587 26.1945 185.587 26.9266C185.587 27.6801 185.422 28.2649 185.091 28.6824C184.761 29.1006 184.361 29.3086 183.89 29.3086C183.666 29.3086 183.463 29.2597 183.281 29.1598C183.1 29.0614 182.908 28.8919 182.708 28.652V30.9052H181.639V24.6919ZM182.692 26.8748C182.692 27.3826 182.782 27.7571 182.962 27.9999C183.141 28.2412 183.361 28.3626 183.619 28.3626C183.868 28.3626 184.074 28.2516 184.239 28.0288C184.404 27.806 184.487 27.4418 184.487 26.934C184.487 26.4595 184.402 26.1079 184.232 25.8785C184.062 25.6483 183.852 25.5343 183.601 25.5343C183.339 25.5343 183.122 25.6468 182.95 25.8726C182.778 26.0983 182.692 26.4322 182.692 26.8748ZM185.85 24.6919H189.509V25.6557H188.214V29.1961H187.145V25.6557H185.85V24.6919ZM189.833 24.6919H190.973L191.944 27.8867L192.892 24.6919H194L192.572 29.0266L192.315 29.809C192.22 30.071 192.13 30.2709 192.044 30.4093C191.959 30.547 191.861 30.6595 191.75 30.7446C191.64 30.8319 191.503 30.8986 191.34 30.9459C191.179 30.994 190.996 31.0185 190.792 31.0185C190.586 31.0185 190.383 30.994 190.184 30.9459L190.091 30.0177C190.258 30.0532 190.411 30.0725 190.546 30.0725C190.796 30.0725 190.98 29.9911 191.1 29.8282C191.22 29.6646 191.312 29.4559 191.375 29.205L189.833 24.6919Z" fill="white"/>
</svg>
