<svg width="25" height="26" viewBox="0 0 25 26" fill="none" xmlns="http://www.w3.org/2000/svg">
<path fill-rule="evenodd" clip-rule="evenodd" d="M13.6406 19.4026L12.4987 20.3997L11.3568 19.4026C7.2783 15.8413 5.20703 12.6899 5.20703 9.76152C5.20703 5.61715 8.43984 2.46985 12.4987 2.46985C16.5576 2.46985 19.7904 5.61715 19.7904 9.76152C19.7904 12.6899 17.7191 15.8413 13.6406 19.4026ZM5.92115 15.8068C6.34885 16.3923 6.82528 16.9879 7.35024 17.5938C5.41042 18.0307 4.16536 18.6508 4.16536 19.1365C4.16536 19.9771 7.89364 21.2199 12.4987 21.2199C17.1038 21.2199 20.832 19.9771 20.832 19.1365C20.832 18.6508 19.587 18.0307 17.6472 17.5938C18.1721 16.9879 18.6486 16.3923 19.0763 15.8068C21.4188 16.5176 22.9154 17.6578 22.9154 19.1365C22.9154 21.7477 18.249 23.3032 12.4987 23.3032C6.74842 23.3032 2.08203 21.7477 2.08203 19.1365C2.08203 17.6578 3.57863 16.5176 5.92115 15.8068ZM12.499 4.55318C15.4196 4.55318 17.7074 6.78043 17.7074 9.76152C17.7074 11.8938 16.0122 14.5177 12.499 17.6324C8.98582 14.5177 7.29069 11.8938 7.29069 9.76152C7.29069 6.78043 9.57844 4.55318 12.499 4.55318ZM12.4984 6.63651C14.2243 6.63651 15.6234 8.03562 15.6234 9.76151C15.6234 11.4874 14.2243 12.8865 12.4984 12.8865C10.7725 12.8865 9.37337 11.4874 9.37337 9.76151C9.37337 8.03562 10.7725 6.63651 12.4984 6.63651ZM11.457 9.76152C11.457 9.18622 11.9234 8.71985 12.4987 8.71985C13.074 8.71985 13.5404 9.18622 13.5404 9.76152C13.5404 10.3368 13.074 10.8032 12.4987 10.8032C11.9234 10.8032 11.457 10.3368 11.457 9.76152Z" fill="#333333"/>
</svg>
