<svg width="18" height="18" viewBox="0 0 18 18" fill="none" xmlns="http://www.w3.org/2000/svg">
<path fill-rule="evenodd" clip-rule="evenodd" d="M7.81418 5.81987C8.24594 5.23803 8.40076 4.62482 7.91246 4.08355C6.81666 2.55023 6.07971 1.60203 5.61746 1.1454C4.73866 0.277293 3.29302 0.394718 2.53192 1.14466C2.12312 1.54746 1.98472 1.68579 1.56498 2.11213C-0.773064 4.45143 0.652795 9.39662 4.44325 13.1908C8.23284 16.9841 13.1776 18.4107 15.5205 16.0665C15.9078 15.6931 16.2358 15.365 16.4944 15.0916C17.2403 14.3033 17.3535 12.9214 16.4895 12.0236C16.0466 11.5634 15.1424 10.862 13.5445 9.71907C13.0552 9.28148 12.4749 9.37632 11.943 9.72532C11.6871 9.8932 11.5008 10.063 11.1492 10.415L10.5107 11.0539C10.4266 11.138 9.28458 10.5661 8.17602 9.45648C7.06685 8.34623 6.49534 7.20417 6.57905 7.12047L7.21802 6.48114C7.32959 6.36947 7.38292 6.3154 7.45132 6.24351C7.59383 6.09374 7.71182 5.95782 7.81418 5.81987ZM11.6885 12.2324L12.3272 11.5934C12.5207 11.3997 12.6461 11.2806 12.7482 11.1984C14.1479 12.2036 14.9585 12.8357 15.2896 13.1797C15.4884 13.3863 15.4576 13.7632 15.2847 13.9458C15.0456 14.1986 14.7348 14.5095 14.3535 14.8773C12.8385 16.393 8.84701 15.2414 5.62136 12.0125C2.39471 8.78272 1.24366 4.79062 2.74725 3.28619C3.16531 2.8616 3.29776 2.72922 3.70072 2.33217C3.85181 2.1833 4.26336 2.14987 4.44715 2.33143C4.80304 2.68299 5.46321 3.52828 6.43435 4.88106C6.38407 4.94348 6.32128 5.01402 6.24487 5.09433C6.18878 5.15327 6.14206 5.20064 6.03991 5.30289L5.40156 5.94159C4.3156 7.02745 5.24044 8.87555 6.9979 10.6347C8.75416 12.3927 10.6029 13.3186 11.6885 12.2324ZM10.1463 0.596158C13.749 1.03286 16.6057 3.88956 17.0424 7.49233L15.3962 7.7667C15.0784 4.86472 12.7739 2.56021 9.8719 2.24235L10.1463 0.596158ZM9.5973 3.88997C11.7986 4.08685 13.5517 5.84003 13.7486 8.0413L12.0971 8.31654C12.0271 6.8158 10.8228 5.61153 9.32205 5.54145L9.5973 3.88997Z" fill="#333333"/>
</svg>
